<?xml version="1.0" standalone="no"?>
<!DOCTYPE svg PUBLIC "-//W3C//DTD SVG 20010904//EN"
 "http://www.w3.org/TR/2001/REC-SVG-20010904/DTD/svg10.dtd">
<svg version="1.0" xmlns="http://www.w3.org/2000/svg"
 width="1024.000000pt" height="1024.000000pt" viewBox="0 0 1024.000000 1024.000000"
 preserveAspectRatio="xMidYMid meet">

<g transform="translate(0.000000,1024.000000) scale(0.100000,-0.100000)"
fill="#000000" stroke="none">
<path d="M0 5120 l0 -5120 5120 0 5120 0 0 5120 0 5120 -5120 0 -5120 0 0
-5120z m6429 2136 c304 -50 563 -187 797 -420 138 -139 198 -220 265 -361 94
-196 149 -418 149 -600 0 -66 -3 -69 -151 -125 -113 -43 -173 -57 -182 -43 -3
5 -13 69 -22 142 -24 210 -59 319 -159 496 -105 188 -277 355 -451 439 -236
115 -219 114 -1372 115 -800 1 -969 -1 -1053 -14 -328 -49 -606 -233 -770
-511 -106 -180 -136 -265 -165 -466 -9 -62 -18 -121 -21 -130 -6 -19 -275
-158 -305 -158 -13 0 -18 13 -23 61 -17 171 0 361 50 556 74 287 201 483 449
693 227 192 506 310 805 340 41 4 521 7 1065 5 875 -2 1002 -4 1094 -19z
m-1649 -611 c49 -25 70 -62 70 -120 0 -93 -68 -158 -159 -153 -37 3 -49 9 -74
40 -78 97 -20 247 96 248 21 0 51 -7 67 -15z m845 -212 c28 -9 130 -59 228
-111 214 -114 233 -118 337 -72 175 77 197 82 336 88 142 5 216 -8 268 -49 31
-24 27 -35 -17 -44 -72 -16 -137 -64 -137 -101 0 -22 43 -72 87 -101 34 -23
97 -18 154 12 28 14 54 23 60 20 14 -9 34 -52 58 -125 45 -133 24 -259 -58
-353 -36 -40 -137 -95 -150 -81 -4 5 -13 38 -19 74 -41 228 -258 409 -493 410
-91 0 -158 -18 -262 -72 -143 -74 -235 -192 -272 -349 -19 -83 -19 -245 1
-334 33 -149 35 -138 -37 -173 -35 -16 -138 -66 -229 -109 -91 -44 -185 -89
-210 -100 -25 -12 -140 -67 -256 -122 -116 -56 -214 -101 -219 -101 -4 0 -74
-32 -154 -71 -80 -39 -162 -77 -181 -84 -19 -7 -136 -61 -259 -119 -122 -58
-225 -106 -227 -106 -2 0 -78 -36 -170 -80 -91 -44 -168 -80 -170 -80 -3 0
-599 -291 -637 -312 -11 -5 -21 -8 -23 -6 -2 2 -4 87 -4 188 -2 217 -21 188
180 280 215 98 343 158 705 328 187 88 389 181 448 206 60 26 197 88 305 138
207 96 403 184 612 275 136 59 177 91 189 146 16 71 -25 107 -123 107 -46 0
-72 -7 -120 -31 -76 -39 -279 -133 -451 -209 -186 -83 -410 -183 -480 -215
-33 -15 -141 -65 -240 -110 -194 -89 -538 -252 -780 -370 -82 -40 -176 -82
-207 -94 l-58 -21 0 58 c0 31 -3 107 -6 168 l-7 111 99 52 c54 28 151 75 214
105 63 30 192 90 285 134 617 290 1088 505 1382 631 117 50 239 104 270 120
32 15 119 54 193 85 140 58 321 146 354 170 24 20 16 30 -70 86 -83 54 -154
75 -219 66 -28 -5 -237 -102 -577 -270 -293 -145 -621 -305 -728 -356 -107
-51 -316 -151 -465 -223 -301 -145 -322 -155 -556 -260 l-167 -75 -7 165 c-4
92 -4 168 1 173 12 12 420 205 649 308 99 44 286 128 415 187 129 59 298 136
375 170 77 34 181 82 230 107 50 25 128 62 175 83 151 66 263 116 380 170 136
62 176 76 250 86 69 9 140 3 205 -18z m-1217 -76 c27 -25 30 -77 5 -99 -10 -9
-51 -32 -91 -52 -92 -46 -120 -45 -145 7 -18 35 -18 39 -3 62 20 30 84 72 146
96 48 18 52 17 88 -14z m-393 -177 c24 -47 19 -85 -14 -109 -43 -31 -190 -100
-228 -107 -39 -7 -60 7 -80 54 -10 23 -11 38 -3 51 14 26 251 140 292 141 10
0 24 -13 33 -30z m2401 -399 c156 -70 210 -243 127 -417 -30 -65 -81 -112
-165 -156 -121 -62 -268 -38 -367 61 -79 79 -104 247 -50 353 46 93 103 142
202 174 61 20 191 12 253 -15z m1093 -472 c73 -5 148 -16 167 -24 30 -12 34
-18 34 -52 0 -23 -11 -56 -26 -83 -15 -25 -51 -90 -81 -145 -71 -129 -94 -169
-130 -230 -16 -27 -44 -79 -62 -115 -62 -122 -98 -153 -133 -112 -9 9 -33 52
-53 94 l-38 77 -61 -44 c-34 -25 -118 -81 -187 -125 -70 -45 -166 -109 -213
-143 -47 -34 -176 -120 -286 -192 -110 -71 -300 -197 -422 -278 -123 -81 -256
-169 -296 -195 -41 -26 -169 -108 -285 -182 -261 -167 -397 -254 -537 -345
-60 -38 -178 -115 -264 -170 -196 -125 -393 -266 -474 -339 -39 -34 -72 -56
-86 -56 -90 0 -418 148 -507 229 l-29 26 62 50 c120 95 453 295 858 515 58 31
173 94 255 140 83 46 227 124 320 175 94 50 240 130 325 177 85 47 218 118
295 158 77 41 172 91 210 112 39 21 124 66 190 99 66 34 149 78 185 99 36 20
164 88 285 150 382 197 605 328 605 357 0 23 -51 103 -75 119 -12 8 -56 19
-96 23 -111 13 -126 21 -121 65 3 24 11 40 26 48 29 15 36 28 36 64 0 42 22
58 89 65 67 8 333 2 520 -12z m-771 -291 c55 -27 71 -50 53 -72 -7 -8 -128
-72 -269 -142 -267 -133 -790 -404 -972 -504 -58 -32 -199 -108 -315 -170
-460 -245 -1167 -637 -1390 -770 -71 -42 -186 -110 -253 -150 -68 -40 -146
-90 -173 -111 -26 -22 -52 -39 -56 -39 -13 0 -82 80 -140 162 -59 85 -167 302
-160 322 14 36 500 283 942 478 88 39 272 122 409 185 137 63 271 123 297 133
27 11 111 46 186 79 76 32 217 91 313 131 96 39 227 93 290 120 63 26 126 51
140 55 14 4 95 36 180 70 174 71 649 233 719 245 69 13 147 4 199 -22z m902
-735 c0 -248 -12 -421 -36 -536 -80 -383 -358 -756 -708 -950 -168 -93 -400
-163 -591 -177 -118 -9 -773 -5 -782 4 -8 7 14 34 112 140 50 53 122 123 160
154 l70 57 265 6 c242 6 273 8 362 32 177 47 341 148 483 298 174 184 267 407
294 702 l8 97 47 41 c43 38 156 179 215 268 100 152 101 151 101 -136z m-772
-219 c45 -29 55 -109 23 -172 -39 -77 -129 -121 -199 -98 -17 6 -32 0 -60 -21
-20 -16 -111 -81 -202 -143 -406 -280 -753 -532 -945 -685 -269 -216 -322
-259 -355 -294 l-35 -37 -205 2 c-402 2 -422 3 -418 17 8 22 220 188 363 282
77 50 226 145 330 210 105 65 244 152 310 193 66 42 156 97 201 123 44 25 116
69 160 96 126 80 468 273 633 359 58 30 121 73 163 111 37 34 80 65 95 69 16
3 33 7 38 9 18 7 79 -6 103 -21z"/>
<path d="M6216 5630 c-121 -37 -128 -199 -10 -251 72 -32 132 -11 172 60 30
54 29 102 -5 142 -43 51 -95 67 -157 49z"/>
<path d="M5872 3295 c-28 -20 -52 -38 -52 -40 0 -3 25 11 55 31 48 32 62 44
52 44 -1 0 -26 -16 -55 -35z"/>
</g>
</svg>
